ffmpeg started on 2025-07-06 at 18:00:01
Report written to "D:\Convert\FFMetrics\reports\psnr_report-6.txt"
Log level: 32
Command line:
ffmpeg -hide_banner -nostdin -i "G:\\\xc0\xed\xe8\xec\xe5\\\xce\xed\xe3\xee\xe8\xed\xe3\xe8\\!_37_\xc7\xe8\xec\xe0_2025\\JamClub\\\xc3\xee\xeb\xf3\xe1\xe0\xff \xf8\xea\xe0\xf2\xf3\xeb\xea\xe0\\JamClub_Ao_no_Hako_15_1080p_HEVC.mkv" -i "G:\\\xc0\xed\xe8\xec\xe5\\\xce\xed\xe3\xee\xe8\xed\xe3\xe8\\!_37_\xc7\xe8\xec\xe0_2025\\JamClub\\\xc3\xee\xeb\xf3\xe1\xe0\xff \xf8\xea\xe0\xf2\xf3\xeb\xea\xe0\\JamClub_Ao_no_Hako_15_1080p.mp4" -lavfi "[0:v]settb=AVTB,setpts=PTS-STARTPTS,format=pix_fmts=yuv420p10,fps=24000/1001,scale=1920:1080:flags=bicubic[main];[1:v]settb=AVTB,setpts=PTS-STARTPTS,format=pix_fmts=yuv420p,fps=24000/1001,scale=1920:1080:flags=bicubic[ref];[main][ref]psnr=eof_action=endall:stats_file='D\\:/Convert/FFMetrics/logs/psnr_logfile-6.txt'" -f null -
Input #0, matroska,webm, from 'G:\Аниме\Онгоинги\!_37_Зима_2025\JamClub\Голубая шкатулка\JamClub_Ao_no_Hako_15_1080p_HEVC.mkv':
  Metadata:
    COMPATIBLE_BRANDS: isomiso2avc1mp41
    MAJOR_BRAND     : isom
    MINOR_VERSION   : 512
    ENCODER         : Lavf61.7.100
  Duration: 00:23:59.25, start: -0.001000, bitrate: 1224 kb/s
  Stream #0:0: Video: hevc (Main 10), yuv420p10le(tv, bt709, progressive), 1920x1080 [SAR 1:1 DAR 16:9], 23.98 fps, 23.98 tbr, 1k tbn (default)
      Metadata:
        HANDLER_NAME    : VideoHandler
        VENDOR_ID       : [0][0][0][0]
        ENCODER         : Lavc61.19.100 libx265
        BPS             : 1027694
        DURATION        : 00:23:59.187708333
        NUMBER_OF_FRAMES: 34506
        NUMBER_OF_BYTES : 184880566
        _STATISTICS_WRITING_APP: mkvpropedit v66.0.0 ('Josie') 64-bit
        _STATISTICS_WRITING_DATE_UTC: 2025-07-06 09:40:21
        _STATISTICS_TAGS: BPS DURATION NUMBER_OF_FRAMES NUMBER_OF_BYTES
  Stream #0:1(eng): Audio: aac (LC), 48000 Hz, stereo, fltp (default)
      Metadata:
        HANDLER_NAME    : SoundHandler
        VENDOR_ID       : [0][0][0][0]
        ENCODER         : Lavc61.19.100 aac
        BPS             : 193101
        DURATION        : 00:23:59.213000000
        NUMBER_OF_FRAMES: 67464
        NUMBER_OF_BYTES : 34739283
        _STATISTICS_WRITING_APP: mkvpropedit v66.0.0 ('Josie') 64-bit
        _STATISTICS_WRITING_DATE_UTC: 2025-07-06 09:40:21
        _STATISTICS_TAGS: BPS DURATION NUMBER_OF_FRAMES NUMBER_OF_BYTES
Input #1, mov,mp4,m4a,3gp,3g2,mj2, from 'G:\Аниме\Онгоинги\!_37_Зима_2025\JamClub\Голубая шкатулка\JamClub_Ao_no_Hako_15_1080p.mp4':
  Metadata:
    major_brand     : isom
    minor_version   : 512
    compatible_brands: isomiso2avc1mp41
    encoder         : Lavf60.16.100
  Duration: 00:23:59.23, start: 0.000000, bitrate: 4507 kb/s
  Stream #1:0[0x1](und): Video: h264 (High) (avc1 / 0x31637661), yuv420p(progressive), 1920x1080 [SAR 1:1 DAR 16:9], 4309 kb/s, 23.98 fps, 23.98 tbr, 90k tbn (default)
      Metadata:
        handler_name    : VideoHandler
        vendor_id       : [0][0][0][0]
  Stream #1:1[0x2](eng): Audio: aac (LC) (mp4a / 0x6134706D), 48000 Hz, stereo, fltp, 191 kb/s (default)
      Metadata:
        handler_name    : SoundHandler
        vendor_id       : [0][0][0][0]
Stream mapping:
  Stream #0:0 (hevc) -> settb:default
  Stream #1:0 (h264) -> settb:default
  psnr:default -> Stream #0:0 (wrapped_avframe)
  Stream #0:1 -> #0:1 (aac (native) -> pcm_s16le (native))
Output #0, null, to 'pipe:':
  Metadata:
    COMPATIBLE_BRANDS: isomiso2avc1mp41
    MAJOR_BRAND     : isom
    MINOR_VERSION   : 512
    encoder         : Lavf61.7.100
  Stream #0:0: Video: wrapped_avframe, yuv420p10le(tv, bt709, progressive), 1920x1080 [SAR 1:1 DAR 16:9], q=2-31, 200 kb/s, 23.98 fps, 23.98 tbn
      Metadata:
        encoder         : Lavc61.19.100 wrapped_avframe
  Stream #0:1(eng): Audio: pcm_s16le, 48000 Hz, stereo, s16, 1536 kb/s (default)
      Metadata:
        HANDLER_NAME    : SoundHandler
        VENDOR_ID       : [0][0][0][0]
        _STATISTICS_TAGS: BPS DURATION NUMBER_OF_FRAMES NUMBER_OF_BYTES
        BPS             : 193101
        DURATION        : 00:23:59.213000000
        NUMBER_OF_FRAMES: 67464
        NUMBER_OF_BYTES : 34739283
        _STATISTICS_WRITING_APP: mkvpropedit v66.0.0 ('Josie') 64-bit
        _STATISTICS_WRITING_DATE_UTC: 2025-07-06 09:40:21
        encoder         : Lavc61.19.100 pcm_s16le
frame=  107 fps=0.0 q=-0.0 size=N/A time=00:00:04.46 bitrate=N/A speed=8.72x    frame=  266 fps=256 q=-0.0 size=N/A time=00:00:11.09 bitrate=N/A speed=10.7x    frame=  458 fps=295 q=-0.0 size=N/A time=00:00:19.10 bitrate=N/A speed=12.3x    frame=  719 fps=349 q=-0.0 size=N/A time=00:00:29.98 bitrate=N/A speed=14.5x    frame=  972 fps=375 q=-0.0 size=N/A time=00:00:40.54 bitrate=N/A speed=15.7x    frame= 1204 fps=388 q=-0.0 size=N/A time=00:00:50.21 bitrate=N/A speed=16.2x    frame= 1427 fps=395 q=-0.0 size=N/A time=00:00:59.51 bitrate=N/A speed=16.5x    frame= 1645 fps=399 q=-0.0 size=N/A time=00:01:08.61 bitrate=N/A speed=16.6x    frame= 1873 fps=403 q=-0.0 size=N/A time=00:01:18.11 bitrate=N/A speed=16.8x    frame= 2093 fps=405 q=-0.0 size=N/A time=00:01:27.29 bitrate=N/A speed=16.9x    frame= 2294 fps=404 q=-0.0 size=N/A time=00:01:35.67 bitrate=N/A speed=16.9x    frame= 2546 fps=412 q=-0.0 size=N/A time=00:01:46.18 bitrate=N/A speed=17.2x    frame= 2734 fps=407 q=-0.0 size=N/A time=00:01:54.03 bitrate=N/A speed=  17x    frame= 2953 fps=409 q=-0.0 size=N/A time=00:02:03.16 bitrate=N/A speed=17.1x    frame= 3182 fps=411 q=-0.0 size=N/A time=00:02:12.71 bitrate=N/A speed=17.2x    frame= 3420 fps=415 q=-0.0 size=N/A time=00:02:22.64 bitrate=N/A speed=17.3x    frame= 3646 fps=416 q=-0.0 size=N/A time=00:02:32.06 bitrate=N/A speed=17.3x    frame= 3861 fps=416 q=-0.0 size=N/A time=00:02:41.03 bitrate=N/A speed=17.3x    frame= 4080 fps=416 q=-0.0 size=N/A time=00:02:50.17 bitrate=N/A speed=17.4x    frame= 4265 fps=413 q=-0.0 size=N/A time=00:02:57.88 bitrate=N/A speed=17.2x    frame= 4507 fps=416 q=-0.0 size=N/A time=00:03:07.97 bitrate=N/A speed=17.3x    frame= 4720 fps=416 q=-0.0 size=N/A time=00:03:16.86 bitrate=N/A speed=17.4x    frame= 4945 fps=417 q=-0.0 size=N/A time=00:03:26.24 bitrate=N/A speed=17.4x    frame= 5209 fps=421 q=-0.0 size=N/A time=00:03:37.25 bitrate=N/A speed=17.5x    frame= 5447 fps=422 q=-0.0 size=N/A time=00:03:47.18 bitrate=N/A speed=17.6x    frame= 5704 fps=425 q=-0.0 size=N/A time=00:03:57.90 bitrate=N/A speed=17.7x    frame= 5969 fps=429 q=-0.0 size=N/A time=00:04:08.95 bitrate=N/A speed=17.9x    frame= 6243 fps=432 q=-0.0 size=N/A time=00:04:20.38 bitrate=N/A speed=  18x    frame= 6502 fps=435 q=-0.0 size=N/A time=00:04:31.18 bitrate=N/A speed=18.1x    frame= 6767 fps=437 q=-0.0 size=N/A time=00:04:42.24 bitrate=N/A speed=18.2x    frame= 6997 fps=438 q=-0.0 size=N/A time=00:04:51.83 bitrate=N/A speed=18.3x    frame= 7245 fps=439 q=-0.0 size=N/A time=00:05:02.17 bitrate=N/A speed=18.3x    frame= 7490 fps=440 q=-0.0 size=N/A time=00:05:12.39 bitrate=N/A speed=18.4x    frame= 7740 fps=442 q=-0.0 size=N/A time=00:05:22.82 bitrate=N/A speed=18.4x    frame= 8006 fps=443 q=-0.0 size=N/A time=00:05:33.91 bitrate=N/A speed=18.5x    frame= 8256 fps=445 q=-0.0 size=N/A time=00:05:44.34 bitrate=N/A speed=18.5x    frame= 8509 fps=446 q=-0.0 size=N/A time=00:05:54.89 bitrate=N/A speed=18.6x    frame= 8736 fps=446 q=-0.0 size=N/A time=00:06:04.36 bitrate=N/A speed=18.6x    frame= 8998 fps=447 q=-0.0 size=N/A time=00:06:15.29 bitrate=N/A speed=18.7x    frame= 9238 fps=448 q=-0.0 size=N/A time=00:06:25.30 bitrate=N/A speed=18.7x    frame= 9495 fps=449 q=-0.0 size=N/A time=00:06:36.02 bitrate=N/A speed=18.7x    frame= 9738 fps=450 q=-0.0 size=N/A time=00:06:46.15 bitrate=N/A speed=18.8x    frame= 9975 fps=450 q=-0.0 size=N/A time=00:06:56.04 bitrate=N/A speed=18.8x    frame=10239 fps=451 q=-0.0 size=N/A time=00:07:07.05 bitrate=N/A speed=18.8x    frame=10491 fps=452 q=-0.0 size=N/A time=00:07:17.60 bitrate=N/A speed=18.9x    frame=10731 fps=452 q=-0.0 size=N/A time=00:07:27.57 bitrate=N/A speed=18.9x    frame=10956 fps=452 q=-0.0 size=N/A time=00:07:36.95 bitrate=N/A speed=18.8x    frame=11216 fps=453 q=-0.0 size=N/A time=00:07:47.80 bitrate=N/A speed=18.9x    frame=11479 fps=454 q=-0.0 size=N/A time=00:07:58.76 bitrate=N/A speed=18.9x    frame=11749 fps=456 q=-0.0 size=N/A time=00:08:10.03 bitrate=N/A speed=  19x    frame=12026 fps=457 q=-0.0 size=N/A time=00:08:21.58 bitrate=N/A speed=19.1x    frame=12297 fps=459 q=-0.0 size=N/A time=00:08:32.88 bitrate=N/A speed=19.1x    frame=12538 fps=459 q=-0.0 size=N/A time=00:08:42.93 bitrate=N/A speed=19.1x    frame=12769 fps=458 q=-0.0 size=N/A time=00:08:52.57 bitrate=N/A speed=19.1x    frame=13023 fps=459 q=-0.0 size=N/A time=00:09:03.16 bitrate=N/A speed=19.1x    frame=13265 fps=459 q=-0.0 size=N/A time=00:09:13.26 bitrate=N/A speed=19.2x    frame=13516 fps=460 q=-0.0 size=N/A time=00:09:23.72 bitrate=N/A speed=19.2x    frame=13738 fps=459 q=-0.0 size=N/A time=00:09:32.98 bitrate=N/A speed=19.2x    frame=13956 fps=459 q=-0.0 size=N/A time=00:09:42.08 bitrate=N/A speed=19.1x    frame=14178 fps=458 q=-0.0 size=N/A time=00:09:51.34 bitrate=N/A speed=19.1x    frame=14408 fps=458 q=-0.0 size=N/A time=00:10:00.93 bitrate=N/A speed=19.1x    frame=14644 fps=458 q=-0.0 size=N/A time=00:10:10.77 bitrate=N/A speed=19.1x    frame=14884 fps=458 q=-0.0 size=N/A time=00:10:20.78 bitrate=N/A speed=19.1x    frame=15076 fps=457 q=-0.0 size=N/A time=00:10:28.79 bitrate=N/A speed=19.1x    frame=15303 fps=456 q=-0.0 size=N/A time=00:10:38.26 bitrate=N/A speed=  19x    frame=15530 fps=456 q=-0.0 size=N/A time=00:10:47.73 bitrate=N/A speed=  19x    frame=15771 fps=456 q=-0.0 size=N/A time=00:10:57.78 bitrate=N/A speed=  19x    frame=15970 fps=455 q=-0.0 size=N/A time=00:11:06.08 bitrate=N/A speed=  19x    frame=16147 fps=454 q=-0.0 size=N/A time=00:11:13.46 bitrate=N/A speed=18.9x    frame=16361 fps=453 q=-0.0 size=N/A time=00:11:22.39 bitrate=N/A speed=18.9x    frame=16626 fps=454 q=-0.0 size=N/A time=00:11:33.44 bitrate=N/A speed=18.9x    frame=16868 fps=454 q=-0.0 size=N/A time=00:11:43.53 bitrate=N/A speed=  19x    frame=17095 fps=454 q=-0.0 size=N/A time=00:11:53.00 bitrate=N/A speed=18.9x    frame=17287 fps=453 q=-0.0 size=N/A time=00:12:01.01 bitrate=N/A speed=18.9x    frame=17504 fps=453 q=-0.0 size=N/A time=00:12:10.06 bitrate=N/A speed=18.9x    frame=17711 fps=452 q=-0.0 size=N/A time=00:12:18.69 bitrate=N/A speed=18.9x    frame=17922 fps=451 q=-0.0 size=N/A time=00:12:27.49 bitrate=N/A speed=18.8x    frame=18175 fps=452 q=-0.0 size=N/A time=00:12:38.04 bitrate=N/A speed=18.8x    frame=18398 fps=452 q=-0.0 size=N/A time=00:12:47.34 bitrate=N/A speed=18.8x    frame=18656 fps=452 q=-0.0 size=N/A time=00:12:58.11 bitrate=N/A speed=18.9x    frame=18914 fps=453 q=-0.0 size=N/A time=00:13:08.87 bitrate=N/A speed=18.9x    frame=19174 fps=453 q=-0.0 size=N/A time=00:13:19.71 bitrate=N/A speed=18.9x    frame=19397 fps=453 q=-0.0 size=N/A time=00:13:29.01 bitrate=N/A speed=18.9x    frame=19666 fps=454 q=-0.0 size=N/A time=00:13:40.23 bitrate=N/A speed=18.9x    frame=19922 fps=454 q=-0.0 size=N/A time=00:13:50.91 bitrate=N/A speed=18.9x    frame=20163 fps=455 q=-0.0 size=N/A time=00:14:00.96 bitrate=N/A speed=  19x    frame=20390 fps=454 q=-0.0 size=N/A time=00:14:10.43 bitrate=N/A speed=  19x    frame=20653 fps=455 q=-0.0 size=N/A time=00:14:21.40 bitrate=N/A speed=  19x    frame=20896 fps=455 q=-0.0 size=N/A time=00:14:31.53 bitrate=N/A speed=  19x    frame=21148 fps=456 q=-0.0 size=N/A time=00:14:42.04 bitrate=N/A speed=  19x    frame=21396 fps=456 q=-0.0 size=N/A time=00:14:52.39 bitrate=N/A speed=  19x    frame=21628 fps=456 q=-0.0 size=N/A time=00:15:02.06 bitrate=N/A speed=  19x    frame=21846 fps=455 q=-0.0 size=N/A time=00:15:11.16 bitrate=N/A speed=  19x    frame=22077 fps=455 q=-0.0 size=N/A time=00:15:20.79 bitrate=N/A speed=  19x    frame=22331 fps=456 q=-0.0 size=N/A time=00:15:31.38 bitrate=N/A speed=  19x    frame=22565 fps=456 q=-0.0 size=N/A time=00:15:41.14 bitrate=N/A speed=  19x    frame=22832 fps=456 q=-0.0 size=N/A time=00:15:52.28 bitrate=N/A speed=  19x    frame=23081 fps=457 q=-0.0 size=N/A time=00:16:02.67 bitrate=N/A speed=  19x    frame=23325 fps=457 q=-0.0 size=N/A time=00:16:12.84 bitrate=N/A speed=  19x    frame=23580 fps=457 q=-0.0 size=N/A time=00:16:23.48 bitrate=N/A speed=19.1x    frame=23814 fps=457 q=-0.0 size=N/A time=00:16:33.24 bitrate=N/A speed=19.1x    frame=24046 fps=457 q=-0.0 size=N/A time=00:16:42.91 bitrate=N/A speed=19.1x    frame=24280 fps=457 q=-0.0 size=N/A time=00:16:52.67 bitrate=N/A speed=19.1x    frame=24523 fps=457 q=-0.0 size=N/A time=00:17:02.81 bitrate=N/A speed=19.1x    frame=24746 fps=457 q=-0.0 size=N/A time=00:17:12.11 bitrate=N/A speed=19.1x    frame=24997 fps=457 q=-0.0 size=N/A time=00:17:22.58 bitrate=N/A speed=19.1x    frame=25261 fps=458 q=-0.0 size=N/A time=00:17:33.59 bitrate=N/A speed=19.1x    frame=25518 fps=458 q=-0.0 size=N/A time=00:17:44.31 bitrate=N/A speed=19.1x    frame=25781 fps=459 q=-0.0 size=N/A time=00:17:55.28 bitrate=N/A speed=19.1x    frame=26045 fps=459 q=-0.0 size=N/A time=00:18:06.29 bitrate=N/A speed=19.1x    frame=26320 fps=460 q=-0.0 size=N/A time=00:18:17.76 bitrate=N/A speed=19.2x    frame=26571 fps=460 q=-0.0 size=N/A time=00:18:28.23 bitrate=N/A speed=19.2x    frame=26830 fps=460 q=-0.0 size=N/A time=00:18:39.03 bitrate=N/A speed=19.2x    frame=27096 fps=461 q=-0.0 size=N/A time=00:18:50.12 bitrate=N/A speed=19.2x    frame=27348 fps=461 q=-0.0 size=N/A time=00:19:00.63 bitrate=N/A speed=19.2x    frame=27619 fps=462 q=-0.0 size=N/A time=00:19:11.94 bitrate=N/A speed=19.3x    frame=27865 fps=462 q=-0.0 size=N/A time=00:19:22.20 bitrate=N/A speed=19.3x    frame=28139 fps=462 q=-0.0 size=N/A time=00:19:33.63 bitrate=N/A speed=19.3x    frame=28368 fps=462 q=-0.0 size=N/A time=00:19:43.18 bitrate=N/A speed=19.3x    frame=28619 fps=462 q=-0.0 size=N/A time=00:19:53.65 bitrate=N/A speed=19.3x    frame=28874 fps=463 q=-0.0 size=N/A time=00:20:04.28 bitrate=N/A speed=19.3x    frame=29148 fps=463 q=-0.0 size=N/A time=00:20:15.71 bitrate=N/A speed=19.3x    frame=29404 fps=463 q=-0.0 size=N/A time=00:20:26.39 bitrate=N/A speed=19.3x    frame=29657 fps=464 q=-0.0 size=N/A time=00:20:36.94 bitrate=N/A speed=19.3x    frame=29908 fps=464 q=-0.0 size=N/A time=00:20:47.41 bitrate=N/A speed=19.4x    frame=30166 fps=464 q=-0.0 size=N/A time=00:20:58.17 bitrate=N/A speed=19.4x    frame=30424 fps=464 q=-0.0 size=N/A time=00:21:08.93 bitrate=N/A speed=19.4x    frame=30673 fps=465 q=-0.0 size=N/A time=00:21:19.31 bitrate=N/A speed=19.4x    frame=30921 fps=465 q=-0.0 size=N/A time=00:21:29.66 bitrate=N/A speed=19.4x    frame=31191 fps=465 q=-0.0 size=N/A time=00:21:40.92 bitrate=N/A speed=19.4x    frame=31392 fps=465 q=-0.0 size=N/A time=00:21:49.30 bitrate=N/A speed=19.4x    frame=31641 fps=465 q=-0.0 size=N/A time=00:21:59.69 bitrate=N/A speed=19.4x    frame=31894 fps=465 q=-0.0 size=N/A time=00:22:10.24 bitrate=N/A speed=19.4x    frame=32147 fps=465 q=-0.0 size=N/A time=00:22:20.79 bitrate=N/A speed=19.4x    frame=32400 fps=465 q=-0.0 size=N/A time=00:22:31.35 bitrate=N/A speed=19.4x    frame=32632 fps=465 q=-0.0 size=N/A time=00:22:41.02 bitrate=N/A speed=19.4x    frame=32857 fps=465 q=-0.0 size=N/A time=00:22:50.41 bitrate=N/A speed=19.4x    frame=33063 fps=465 q=-0.0 size=N/A time=00:22:59.00 bitrate=N/A speed=19.4x    frame=33218 fps=463 q=-0.0 size=N/A time=00:23:05.46 bitrate=N/A speed=19.3x    frame=33445 fps=463 q=-0.0 size=N/A time=00:23:14.93 bitrate=N/A speed=19.3x    frame=33664 fps=463 q=-0.0 size=N/A time=00:23:24.06 bitrate=N/A speed=19.3x    frame=33849 fps=462 q=-0.0 size=N/A time=00:23:31.78 bitrate=N/A speed=19.3x    frame=34041 fps=462 q=-0.0 size=N/A time=00:23:39.79 bitrate=N/A speed=19.3x    frame=34283 fps=462 q=-0.0 size=N/A time=00:23:49.88 bitrate=N/A speed=19.3x    [Parsed_psnr_10 @ 000002969c33a3c0] PSNR y:47.739488 u:50.260039 v:49.897124 average:48.387647 min:29.540919 max:inf
[out#0/null @ 000002969568c040] video:14827KiB audio:269856KiB subtitle:0KiB other streams:0KiB global headers:0KiB muxing overhead: unknown
frame=34506 fps=462 q=-0.0 Lsize=N/A time=00:23:59.18 bitrate=N/A speed=19.3x    
